G04 #@! TF.FileFunction,Copper,L1,Top,Signal*
%FSLAX46Y46*%
G04 Gerber Fmt 4.6, Leading zero omitted, Abs format (unit mm)*
G04 Created by KiCad (PCBNEW 4.0.2-stable) date Sa 25 Jun 2016 17:10:41 CEST*
%MOMM*%
G01*
G04 APERTURE LIST*
%ADD10C,0.100000*%
%ADD11R,0.700000X1.500000*%
%ADD12C,2.000000*%
%ADD13R,2.000000X2.000000*%
%ADD14R,1.727200X2.032000*%
%ADD15O,1.727200X2.032000*%
%ADD16C,0.500000*%
%ADD17C,0.254000*%
G04 APERTURE END LIST*
D10*
D11*
X9001100Y12996400D03*
X10101100Y12996400D03*
X11201100Y12996400D03*
X12301100Y12996400D03*
X13401100Y12996400D03*
X15601100Y12996400D03*
X16701100Y12996400D03*
X17801100Y12996400D03*
X18901100Y12996400D03*
D12*
X8801100Y10516400D03*
X18801100Y10516400D03*
D13*
X7001100Y5626400D03*
X20661100Y5626400D03*
D11*
X14501100Y12996400D03*
D14*
X2500000Y20000000D03*
D15*
X5040000Y20000000D03*
X7580000Y20000000D03*
X10120000Y20000000D03*
X12660000Y20000000D03*
X15200000Y20000000D03*
X17740000Y20000000D03*
X20280000Y20000000D03*
X22820000Y20000000D03*
X25360000Y20000000D03*
D16*
X9001100Y12996400D02*
X6003600Y12996400D01*
X2500000Y16500000D02*
X2500000Y20000000D01*
X6003600Y12996400D02*
X2500000Y16500000D01*
X10101100Y12996400D02*
X10101100Y13898900D01*
X5040000Y18960000D02*
X5040000Y20000000D01*
X10101100Y13898900D02*
X5040000Y18960000D01*
X11201100Y14298900D02*
X11201100Y15298900D01*
X7580000Y18920000D02*
X7580000Y20000000D01*
X11201100Y15298900D02*
X7580000Y18920000D01*
X11201100Y12996400D02*
X11201100Y14298900D01*
X12301100Y15500000D02*
X12301100Y16198900D01*
X10120000Y18380000D02*
X10120000Y20000000D01*
X12301100Y16198900D02*
X10120000Y18380000D01*
X12301100Y12996400D02*
X12301100Y15500000D01*
X13401100Y12996400D02*
X13401100Y17098900D01*
X12660000Y17840000D02*
X12660000Y20000000D01*
X13401100Y17098900D02*
X12660000Y17840000D01*
X15601100Y15601100D02*
X15601100Y16101100D01*
X15601100Y16101100D02*
X17740000Y18240000D01*
X15601100Y12996400D02*
X15601100Y15601100D01*
X17740000Y18240000D02*
X17740000Y20000000D01*
X16701100Y12996400D02*
X16701100Y15201100D01*
X20280000Y18780000D02*
X20280000Y20000000D01*
X16701100Y15201100D02*
X20280000Y18780000D01*
X17801100Y12996400D02*
X17801100Y14301100D01*
X17801100Y14301100D02*
X22820000Y19320000D01*
X22820000Y19320000D02*
X22820000Y20000000D01*
X18901100Y12996400D02*
X20496400Y12996400D01*
X25360000Y17860000D02*
X25360000Y20000000D01*
X20496400Y12996400D02*
X25360000Y17860000D01*
X14501100Y12996400D02*
X14501100Y17001100D01*
X15200000Y17700000D02*
X15200000Y20000000D01*
X14501100Y17001100D02*
X15200000Y17700000D01*
D17*
G36*
X27290000Y710000D02*
X710000Y710000D01*
X710000Y5340650D01*
X5366100Y5340650D01*
X5366100Y4500090D01*
X5462773Y4266701D01*
X5641402Y4088073D01*
X5874791Y3991400D01*
X6715350Y3991400D01*
X6874100Y4150150D01*
X6874100Y5499400D01*
X7128100Y5499400D01*
X7128100Y4150150D01*
X7286850Y3991400D01*
X8127409Y3991400D01*
X8360798Y4088073D01*
X8539427Y4266701D01*
X8636100Y4500090D01*
X8636100Y5340650D01*
X19026100Y5340650D01*
X19026100Y4500090D01*
X19122773Y4266701D01*
X19301402Y4088073D01*
X19534791Y3991400D01*
X20375350Y3991400D01*
X20534100Y4150150D01*
X20534100Y5499400D01*
X20788100Y5499400D01*
X20788100Y4150150D01*
X20946850Y3991400D01*
X21787409Y3991400D01*
X22020798Y4088073D01*
X22199427Y4266701D01*
X22296100Y4500090D01*
X22296100Y5340650D01*
X22137350Y5499400D01*
X20788100Y5499400D01*
X20534100Y5499400D01*
X19184850Y5499400D01*
X19026100Y5340650D01*
X8636100Y5340650D01*
X8477350Y5499400D01*
X7128100Y5499400D01*
X6874100Y5499400D01*
X5524850Y5499400D01*
X5366100Y5340650D01*
X710000Y5340650D01*
X710000Y6752710D01*
X5366100Y6752710D01*
X5366100Y5912150D01*
X5524850Y5753400D01*
X6874100Y5753400D01*
X6874100Y7102650D01*
X7128100Y7102650D01*
X7128100Y5753400D01*
X8477350Y5753400D01*
X8636100Y5912150D01*
X8636100Y6752710D01*
X19026100Y6752710D01*
X19026100Y5912150D01*
X19184850Y5753400D01*
X20534100Y5753400D01*
X20534100Y7102650D01*
X20788100Y7102650D01*
X20788100Y5753400D01*
X22137350Y5753400D01*
X22296100Y5912150D01*
X22296100Y6752710D01*
X22199427Y6986099D01*
X22020798Y7164727D01*
X21787409Y7261400D01*
X20946850Y7261400D01*
X20788100Y7102650D01*
X20534100Y7102650D01*
X20375350Y7261400D01*
X19534791Y7261400D01*
X19301402Y7164727D01*
X19122773Y6986099D01*
X19026100Y6752710D01*
X8636100Y6752710D01*
X8539427Y6986099D01*
X8360798Y7164727D01*
X8127409Y7261400D01*
X7286850Y7261400D01*
X7128100Y7102650D01*
X6874100Y7102650D01*
X6715350Y7261400D01*
X5874791Y7261400D01*
X5641402Y7164727D01*
X5462773Y6986099D01*
X5366100Y6752710D01*
X710000Y6752710D01*
X710000Y21016000D01*
X988960Y21016000D01*
X988960Y18984000D01*
X1033238Y18748683D01*
X1172310Y18532559D01*
X1384510Y18387569D01*
X1615000Y18340894D01*
X1615000Y16500005D01*
X1614999Y16500000D01*
X1651275Y16317633D01*
X1682367Y16161325D01*
X1830401Y15939775D01*
X1874210Y15874210D01*
X5377808Y12370613D01*
X5377810Y12370610D01*
X5664925Y12178767D01*
X5721116Y12167590D01*
X6003600Y12111399D01*
X6003605Y12111400D01*
X8029062Y12111400D01*
X8047938Y12011083D01*
X8066650Y11982004D01*
X7876157Y11903294D01*
X7415822Y11443763D01*
X7166384Y10843048D01*
X7165816Y10192605D01*
X7414206Y9591457D01*
X7873737Y9131122D01*
X8474452Y8881684D01*
X9124895Y8881116D01*
X9726043Y9129506D01*
X10186378Y9589037D01*
X10435816Y10189752D01*
X10436384Y10840195D01*
X10187994Y11441343D01*
X10030652Y11598960D01*
X10451100Y11598960D01*
X10658442Y11637974D01*
X10851100Y11598960D01*
X11551100Y11598960D01*
X11758442Y11637974D01*
X11951100Y11598960D01*
X12651100Y11598960D01*
X12858442Y11637974D01*
X13051100Y11598960D01*
X13751100Y11598960D01*
X13959950Y11638258D01*
X14024791Y11611400D01*
X14215350Y11611400D01*
X14374100Y11770150D01*
X14374100Y12125712D01*
X14398540Y12246400D01*
X14398540Y13746400D01*
X14603660Y13746400D01*
X14603660Y12246400D01*
X14628100Y12116513D01*
X14628100Y11770150D01*
X14786850Y11611400D01*
X14977409Y11611400D01*
X15047107Y11640270D01*
X15251100Y11598960D01*
X15951100Y11598960D01*
X16158442Y11637974D01*
X16351100Y11598960D01*
X17051100Y11598960D01*
X17258442Y11637974D01*
X17451100Y11598960D01*
X17571291Y11598960D01*
X17415822Y11443763D01*
X17166384Y10843048D01*
X17165816Y10192605D01*
X17414206Y9591457D01*
X17873737Y9131122D01*
X18474452Y8881684D01*
X19124895Y8881116D01*
X19726043Y9129506D01*
X20186378Y9589037D01*
X20435816Y10189752D01*
X20436384Y10840195D01*
X20187994Y11441343D01*
X19761493Y11868590D01*
X19847531Y11994510D01*
X19871202Y12111400D01*
X20496395Y12111400D01*
X20496400Y12111399D01*
X20778884Y12167590D01*
X20835075Y12178767D01*
X21122190Y12370610D01*
X25985787Y17234208D01*
X25985790Y17234210D01*
X26177633Y17521325D01*
X26218085Y17724689D01*
X26245001Y17860000D01*
X26245000Y17860005D01*
X26245000Y18638874D01*
X26419670Y18755585D01*
X26744526Y19241766D01*
X26858600Y19815255D01*
X26858600Y20184745D01*
X26744526Y20758234D01*
X26419670Y21244415D01*
X25933489Y21569271D01*
X25360000Y21683345D01*
X24786511Y21569271D01*
X24300330Y21244415D01*
X24090000Y20929634D01*
X23879670Y21244415D01*
X23393489Y21569271D01*
X22820000Y21683345D01*
X22246511Y21569271D01*
X21760330Y21244415D01*
X21550000Y20929634D01*
X21339670Y21244415D01*
X20853489Y21569271D01*
X20280000Y21683345D01*
X19706511Y21569271D01*
X19220330Y21244415D01*
X19010000Y20929634D01*
X18799670Y21244415D01*
X18313489Y21569271D01*
X17740000Y21683345D01*
X17166511Y21569271D01*
X16680330Y21244415D01*
X16473539Y20934931D01*
X16102036Y21350732D01*
X15574791Y21604709D01*
X15559026Y21607358D01*
X15327000Y21486217D01*
X15327000Y20127000D01*
X15347000Y20127000D01*
X15347000Y19873000D01*
X15327000Y19873000D01*
X15327000Y18513783D01*
X15559026Y18392642D01*
X15574791Y18395291D01*
X16102036Y18649268D01*
X16473539Y19065069D01*
X16680330Y18755585D01*
X16855000Y18638874D01*
X16855000Y18606579D01*
X14975310Y16726890D01*
X14783467Y16439775D01*
X14772572Y16385000D01*
X14716099Y16101100D01*
X14716100Y16101095D01*
X14716100Y14310650D01*
X14628100Y14222650D01*
X14628100Y13867088D01*
X14603660Y13746400D01*
X14398540Y13746400D01*
X14374100Y13876287D01*
X14374100Y14222650D01*
X14286100Y14310650D01*
X14286100Y17098895D01*
X14286101Y17098900D01*
X14218733Y17437574D01*
X14218733Y17437575D01*
X14026890Y17724690D01*
X14026887Y17724692D01*
X13545000Y18206580D01*
X13545000Y18638874D01*
X13719670Y18755585D01*
X13926461Y19065069D01*
X14297964Y18649268D01*
X14825209Y18395291D01*
X14840974Y18392642D01*
X15073000Y18513783D01*
X15073000Y19873000D01*
X15053000Y19873000D01*
X15053000Y20127000D01*
X15073000Y20127000D01*
X15073000Y21486217D01*
X14840974Y21607358D01*
X14825209Y21604709D01*
X14297964Y21350732D01*
X13926461Y20934931D01*
X13719670Y21244415D01*
X13233489Y21569271D01*
X12660000Y21683345D01*
X12086511Y21569271D01*
X11600330Y21244415D01*
X11390000Y20929634D01*
X11179670Y21244415D01*
X10693489Y21569271D01*
X10120000Y21683345D01*
X9546511Y21569271D01*
X9060330Y21244415D01*
X8850000Y20929634D01*
X8639670Y21244415D01*
X8153489Y21569271D01*
X7580000Y21683345D01*
X7006511Y21569271D01*
X6520330Y21244415D01*
X6310000Y20929634D01*
X6099670Y21244415D01*
X5613489Y21569271D01*
X5040000Y21683345D01*
X4466511Y21569271D01*
X3980330Y21244415D01*
X3970757Y21230087D01*
X3966762Y21251317D01*
X3827690Y21467441D01*
X3615490Y21612431D01*
X3363600Y21663440D01*
X1636400Y21663440D01*
X1401083Y21619162D01*
X1184959Y21480090D01*
X1039969Y21267890D01*
X988960Y21016000D01*
X710000Y21016000D01*
X710000Y23790000D01*
X27290000Y23790000D01*
X27290000Y710000D01*
X27290000Y710000D01*
G37*
X27290000Y710000D02*
X710000Y710000D01*
X710000Y5340650D01*
X5366100Y5340650D01*
X5366100Y4500090D01*
X5462773Y4266701D01*
X5641402Y4088073D01*
X5874791Y3991400D01*
X6715350Y3991400D01*
X6874100Y4150150D01*
X6874100Y5499400D01*
X7128100Y5499400D01*
X7128100Y4150150D01*
X7286850Y3991400D01*
X8127409Y3991400D01*
X8360798Y4088073D01*
X8539427Y4266701D01*
X8636100Y4500090D01*
X8636100Y5340650D01*
X19026100Y5340650D01*
X19026100Y4500090D01*
X19122773Y4266701D01*
X19301402Y4088073D01*
X19534791Y3991400D01*
X20375350Y3991400D01*
X20534100Y4150150D01*
X20534100Y5499400D01*
X20788100Y5499400D01*
X20788100Y4150150D01*
X20946850Y3991400D01*
X21787409Y3991400D01*
X22020798Y4088073D01*
X22199427Y4266701D01*
X22296100Y4500090D01*
X22296100Y5340650D01*
X22137350Y5499400D01*
X20788100Y5499400D01*
X20534100Y5499400D01*
X19184850Y5499400D01*
X19026100Y5340650D01*
X8636100Y5340650D01*
X8477350Y5499400D01*
X7128100Y5499400D01*
X6874100Y5499400D01*
X5524850Y5499400D01*
X5366100Y5340650D01*
X710000Y5340650D01*
X710000Y6752710D01*
X5366100Y6752710D01*
X5366100Y5912150D01*
X5524850Y5753400D01*
X6874100Y5753400D01*
X6874100Y7102650D01*
X7128100Y7102650D01*
X7128100Y5753400D01*
X8477350Y5753400D01*
X8636100Y5912150D01*
X8636100Y6752710D01*
X19026100Y6752710D01*
X19026100Y5912150D01*
X19184850Y5753400D01*
X20534100Y5753400D01*
X20534100Y7102650D01*
X20788100Y7102650D01*
X20788100Y5753400D01*
X22137350Y5753400D01*
X22296100Y5912150D01*
X22296100Y6752710D01*
X22199427Y6986099D01*
X22020798Y7164727D01*
X21787409Y7261400D01*
X20946850Y7261400D01*
X20788100Y7102650D01*
X20534100Y7102650D01*
X20375350Y7261400D01*
X19534791Y7261400D01*
X19301402Y7164727D01*
X19122773Y6986099D01*
X19026100Y6752710D01*
X8636100Y6752710D01*
X8539427Y6986099D01*
X8360798Y7164727D01*
X8127409Y7261400D01*
X7286850Y7261400D01*
X7128100Y7102650D01*
X6874100Y7102650D01*
X6715350Y7261400D01*
X5874791Y7261400D01*
X5641402Y7164727D01*
X5462773Y6986099D01*
X5366100Y6752710D01*
X710000Y6752710D01*
X710000Y21016000D01*
X988960Y21016000D01*
X988960Y18984000D01*
X1033238Y18748683D01*
X1172310Y18532559D01*
X1384510Y18387569D01*
X1615000Y18340894D01*
X1615000Y16500005D01*
X1614999Y16500000D01*
X1651275Y16317633D01*
X1682367Y16161325D01*
X1830401Y15939775D01*
X1874210Y15874210D01*
X5377808Y12370613D01*
X5377810Y12370610D01*
X5664925Y12178767D01*
X5721116Y12167590D01*
X6003600Y12111399D01*
X6003605Y12111400D01*
X8029062Y12111400D01*
X8047938Y12011083D01*
X8066650Y11982004D01*
X7876157Y11903294D01*
X7415822Y11443763D01*
X7166384Y10843048D01*
X7165816Y10192605D01*
X7414206Y9591457D01*
X7873737Y9131122D01*
X8474452Y8881684D01*
X9124895Y8881116D01*
X9726043Y9129506D01*
X10186378Y9589037D01*
X10435816Y10189752D01*
X10436384Y10840195D01*
X10187994Y11441343D01*
X10030652Y11598960D01*
X10451100Y11598960D01*
X10658442Y11637974D01*
X10851100Y11598960D01*
X11551100Y11598960D01*
X11758442Y11637974D01*
X11951100Y11598960D01*
X12651100Y11598960D01*
X12858442Y11637974D01*
X13051100Y11598960D01*
X13751100Y11598960D01*
X13959950Y11638258D01*
X14024791Y11611400D01*
X14215350Y11611400D01*
X14374100Y11770150D01*
X14374100Y12125712D01*
X14398540Y12246400D01*
X14398540Y13746400D01*
X14603660Y13746400D01*
X14603660Y12246400D01*
X14628100Y12116513D01*
X14628100Y11770150D01*
X14786850Y11611400D01*
X14977409Y11611400D01*
X15047107Y11640270D01*
X15251100Y11598960D01*
X15951100Y11598960D01*
X16158442Y11637974D01*
X16351100Y11598960D01*
X17051100Y11598960D01*
X17258442Y11637974D01*
X17451100Y11598960D01*
X17571291Y11598960D01*
X17415822Y11443763D01*
X17166384Y10843048D01*
X17165816Y10192605D01*
X17414206Y9591457D01*
X17873737Y9131122D01*
X18474452Y8881684D01*
X19124895Y8881116D01*
X19726043Y9129506D01*
X20186378Y9589037D01*
X20435816Y10189752D01*
X20436384Y10840195D01*
X20187994Y11441343D01*
X19761493Y11868590D01*
X19847531Y11994510D01*
X19871202Y12111400D01*
X20496395Y12111400D01*
X20496400Y12111399D01*
X20778884Y12167590D01*
X20835075Y12178767D01*
X21122190Y12370610D01*
X25985787Y17234208D01*
X25985790Y17234210D01*
X26177633Y17521325D01*
X26218085Y17724689D01*
X26245001Y17860000D01*
X26245000Y17860005D01*
X26245000Y18638874D01*
X26419670Y18755585D01*
X26744526Y19241766D01*
X26858600Y19815255D01*
X26858600Y20184745D01*
X26744526Y20758234D01*
X26419670Y21244415D01*
X25933489Y21569271D01*
X25360000Y21683345D01*
X24786511Y21569271D01*
X24300330Y21244415D01*
X24090000Y20929634D01*
X23879670Y21244415D01*
X23393489Y21569271D01*
X22820000Y21683345D01*
X22246511Y21569271D01*
X21760330Y21244415D01*
X21550000Y20929634D01*
X21339670Y21244415D01*
X20853489Y21569271D01*
X20280000Y21683345D01*
X19706511Y21569271D01*
X19220330Y21244415D01*
X19010000Y20929634D01*
X18799670Y21244415D01*
X18313489Y21569271D01*
X17740000Y21683345D01*
X17166511Y21569271D01*
X16680330Y21244415D01*
X16473539Y20934931D01*
X16102036Y21350732D01*
X15574791Y21604709D01*
X15559026Y21607358D01*
X15327000Y21486217D01*
X15327000Y20127000D01*
X15347000Y20127000D01*
X15347000Y19873000D01*
X15327000Y19873000D01*
X15327000Y18513783D01*
X15559026Y18392642D01*
X15574791Y18395291D01*
X16102036Y18649268D01*
X16473539Y19065069D01*
X16680330Y18755585D01*
X16855000Y18638874D01*
X16855000Y18606579D01*
X14975310Y16726890D01*
X14783467Y16439775D01*
X14772572Y16385000D01*
X14716099Y16101100D01*
X14716100Y16101095D01*
X14716100Y14310650D01*
X14628100Y14222650D01*
X14628100Y13867088D01*
X14603660Y13746400D01*
X14398540Y13746400D01*
X14374100Y13876287D01*
X14374100Y14222650D01*
X14286100Y14310650D01*
X14286100Y17098895D01*
X14286101Y17098900D01*
X14218733Y17437574D01*
X14218733Y17437575D01*
X14026890Y17724690D01*
X14026887Y17724692D01*
X13545000Y18206580D01*
X13545000Y18638874D01*
X13719670Y18755585D01*
X13926461Y19065069D01*
X14297964Y18649268D01*
X14825209Y18395291D01*
X14840974Y18392642D01*
X15073000Y18513783D01*
X15073000Y19873000D01*
X15053000Y19873000D01*
X15053000Y20127000D01*
X15073000Y20127000D01*
X15073000Y21486217D01*
X14840974Y21607358D01*
X14825209Y21604709D01*
X14297964Y21350732D01*
X13926461Y20934931D01*
X13719670Y21244415D01*
X13233489Y21569271D01*
X12660000Y21683345D01*
X12086511Y21569271D01*
X11600330Y21244415D01*
X11390000Y20929634D01*
X11179670Y21244415D01*
X10693489Y21569271D01*
X10120000Y21683345D01*
X9546511Y21569271D01*
X9060330Y21244415D01*
X8850000Y20929634D01*
X8639670Y21244415D01*
X8153489Y21569271D01*
X7580000Y21683345D01*
X7006511Y21569271D01*
X6520330Y21244415D01*
X6310000Y20929634D01*
X6099670Y21244415D01*
X5613489Y21569271D01*
X5040000Y21683345D01*
X4466511Y21569271D01*
X3980330Y21244415D01*
X3970757Y21230087D01*
X3966762Y21251317D01*
X3827690Y21467441D01*
X3615490Y21612431D01*
X3363600Y21663440D01*
X1636400Y21663440D01*
X1401083Y21619162D01*
X1184959Y21480090D01*
X1039969Y21267890D01*
X988960Y21016000D01*
X710000Y21016000D01*
X710000Y23790000D01*
X27290000Y23790000D01*
X27290000Y710000D01*
M02*
